<svg xmlns="http://www.w3.org/2000/svg" viewBox="0 0 512 512" width="64" height="64" role="img" aria-label="OpenDoc UI">
    <defs>
        <linearGradient id="bg" x1="72" y1="60" x2="436" y2="424" gradientUnits="userSpaceOnUse">
            <stop offset="0" stop-color="#6366F1"/>
            <stop offset="0.58" stop-color="#4F46E5"/>
            <stop offset="1" stop-color="#0891B2"/>
        </linearGradient>
        <linearGradient id="paper" x1="156" y1="102" x2="336" y2="390" gradientUnits="userSpaceOnUse">
            <stop offset="0" stop-color="#FFFFFF"/>
            <stop offset="1" stop-color="#F4F7FF"/>
        </linearGradient>
        <filter id="shadow" x="-18%" y="-18%" width="136%" height="140%">
            <feDropShadow dx="0" dy="22" stdDeviation="24" flood-color="#111827" flood-opacity="0.20"/>
        </filter>
    </defs>
    <rect x="56" y="56" width="400" height="400" rx="104" fill="url(#bg)" filter="url(#shadow)"/>
    <rect x="158" y="106" width="196" height="284" rx="34" fill="url(#paper)"/>
    <path d="M207 176H305" stroke="#A5B4FC" stroke-width="17" stroke-linecap="round"/>
    <path d="M207 223H283" stroke="#D6DDF3" stroke-width="14" stroke-linecap="round"/>
    <g fill="none" stroke-linecap="round" stroke-linejoin="round">
        <path d="M235 329C218 329 211 317 222 305L234 291C242 282 242 271 234 262L222 248C211 236 218 224 235 224"
              stroke="#4F46E5" stroke-width="18"/>
        <path d="M283 329C300 329 307 317 296 305L284 291C276 282 276 271 284 262L296 248C307 236 300 224 283 224"
              stroke="#0891B2" stroke-width="18"/>
    </g>
    <path d="M309 278H382" stroke="#E0E7FF" stroke-width="13" stroke-linecap="round"/>
    <circle cx="309" cy="278" r="13" fill="#10B981"/>
    <circle cx="382" cy="278" r="17" fill="#FFFFFF" opacity="0.96"/>
    <circle cx="382" cy="278" r="8" fill="#0891B2"/>
</svg>
